<?xml version="1.0" encoding="utf-8"?>
<!-- Generator: Adobe Illustrator 26.3.1, SVG Export Plug-In . SVG Version: 6.00 Build 0)  -->
<svg version="1.1" id="Layer_1" xmlns="http://www.w3.org/2000/svg" xmlns:xlink="http://www.w3.org/1999/xlink" x="0px" y="0px"
	 viewBox="0 0 36 36" style="enable-background:new 0 0 36 36;" xml:space="preserve">
<style type="text/css">
	.st0{fill:none;stroke:#FFFFFF;stroke-width:2.25;stroke-linecap:round;stroke-linejoin:round;}
	.st1{fill:none;stroke:#FFFFFF;stroke-width:2.25;stroke-linejoin:round;}
</style>
<path class="st0" d="M18,31.5c0.4,0,0.8-0.2,1.6-0.6l6.3-3.1c2.8-1.4,4.2-2,4.2-3.1V11.2 M18,31.5c-0.4,0-0.8-0.2-1.6-0.6l-6.3-3.1
	c-2.8-1.4-4.2-2-4.2-3.1V11.2 M18,31.5V18"/>
<path class="st1" d="M16.4,5.1c0.8-0.4,1.2-0.6,1.6-0.6s0.8,0.2,1.6,0.6l6.3,3.1c2.8,1.4,4.2,2,4.2,3.1s-1.4,1.8-4.2,3.1l-6.3,3.1
	C18.8,17.8,18.4,18,18,18s-0.8-0.2-1.6-0.6l-6.3-3.1C7.4,13,6,12.3,6,11.2s1.4-1.8,4.2-3.1L16.4,5.1z"/>
</svg>
