<?xml version="1.0" encoding="utf-8"?>
<!-- Generator: Adobe Illustrator 26.3.1, SVG Export Plug-In . SVG Version: 6.00 Build 0)  -->
<svg version="1.1" id="Layer_1" xmlns="http://www.w3.org/2000/svg" xmlns:xlink="http://www.w3.org/1999/xlink" x="0px" y="0px"
	 viewBox="0 0 36 36" style="enable-background:new 0 0 36 36;" xml:space="preserve">
<style type="text/css">
	.st0{fill:none;stroke:#FFFFFF;stroke-width:2.25;stroke-linecap:round;stroke-linejoin:round;}
	.st1{fill:none;stroke:#FFFFFF;stroke-width:2.25;stroke-linecap:round;}
</style>
<path class="st0" d="M22.5,10.5c0,0,0.8,0.8,1.5,2.2c0,0,2.4-3.7,4.5-4.5"/>
<path class="st0" d="M15,3c-3.7-0.2-6.6,0.3-6.6,0.3C6.5,3.4,3,4.5,3,10.4c0,5.9,0,13.3,0,16.2c0,1.8,1.1,5.9,4.9,6.2
	c4.6,0.3,13,0.3,16.8,0c1-0.1,4.4-0.9,4.9-4.6c0.4-3.9,0.4-6.5,0.4-7.2"/>
<path class="st1" d="M33,10.5c0,4.1-3.4,7.5-7.5,7.5c-4.1,0-7.5-3.4-7.5-7.5C18,6.4,21.3,3,25.5,3C29.6,3,33,6.4,33,10.5z"/>
<path class="st1" d="M10.5,19.5h6"/>
<path class="st1" d="M10.5,25.5h12"/>
</svg>
