<svg width="512" height="512" viewBox="0 0 512 512" fill="none" xmlns="http://www.w3.org/2000/svg">
<g clip-path="url(#clip0_7298_14639)">
<path d="M22.2635 20.7431C23.5329 20.7367 24.8024 20.7302 26.1104 20.7236C27.5169 20.7265 28.9233 20.7297 30.3298 20.733C31.8257 20.7292 33.3216 20.7246 34.8175 20.7192C38.9296 20.707 43.0416 20.7073 47.1536 20.7096C51.588 20.71 56.0223 20.699 60.4566 20.6895C69.1448 20.6729 77.8331 20.6674 86.5213 20.6663C93.583 20.6653 100.645 20.6612 107.706 20.6549C127.724 20.6373 147.741 20.6281 167.759 20.6296C169.378 20.6297 169.378 20.6297 171.03 20.6298C172.651 20.6299 172.651 20.6299 174.304 20.63C191.82 20.6309 209.335 20.6117 226.85 20.5835C244.831 20.5548 262.812 20.541 280.793 20.5427C290.89 20.5434 300.986 20.5379 311.082 20.5164C319.678 20.4982 328.274 20.4938 336.871 20.5074C341.256 20.5139 345.642 20.514 350.028 20.4967C354.044 20.481 358.06 20.4838 362.077 20.5012C363.528 20.5043 364.98 20.5007 366.431 20.4895C375.573 20.424 382.095 20.7781 389.244 26.9301C389.782 27.572 390.321 28.214 390.876 28.8754C391.431 29.5122 391.985 30.149 392.556 30.8051C395.841 35.7939 396.254 40.6592 396.269 46.5218C396.273 47.2584 396.278 47.9951 396.283 48.754C396.295 51.2113 396.294 53.6683 396.292 56.1256C396.298 57.8918 396.305 59.6579 396.312 61.4241C396.33 66.2132 396.335 71.0022 396.336 75.7913C396.337 78.7835 396.342 81.7756 396.347 84.7677C396.365 95.2061 396.374 105.644 396.372 116.083C396.371 125.814 396.392 135.546 396.424 145.278C396.45 153.634 396.46 161.991 396.459 170.348C396.459 175.339 396.464 180.329 396.486 185.32C396.505 190.011 396.505 194.701 396.49 199.392C396.488 201.114 396.493 202.836 396.505 204.558C396.521 206.907 396.511 209.256 396.496 211.606C396.497 212.921 396.498 214.236 396.499 215.591C395.921 219.55 394.815 221.21 392.001 224C390.001 224.629 390.001 224.629 388.001 224.563C387.341 224.564 386.681 224.565 386.001 224.567C384.001 224 384.001 224 380.001 220C380.001 178.75 380.001 137.5 380.001 95.0004C259.551 95.0004 139.101 95.0004 15.0015 95.0004C15.1252 146.212 15.249 197.424 15.3765 250.188C15.4105 266.379 15.4445 282.57 15.4795 299.251C15.5194 313.721 15.5194 313.721 15.5619 328.191C15.5808 334.653 15.5943 341.115 15.6041 347.578C15.6155 355.026 15.6337 362.474 15.6604 369.923C15.6738 373.735 15.6842 377.547 15.6857 381.359C15.6874 385.437 15.7044 389.515 15.723 393.592C15.721 394.788 15.7191 395.983 15.7171 397.214C15.7246 398.308 15.732 399.401 15.7397 400.528C15.742 401.471 15.7443 402.414 15.7466 403.385C16.0278 406.271 16.7085 408.411 18.0015 411C20.3076 412.153 21.6172 412.13 24.1831 412.139C25.0649 412.145 25.9467 412.15 26.8552 412.156C27.8299 412.157 28.8046 412.158 29.8089 412.159C30.8396 412.164 31.8704 412.168 32.9324 412.174C36.4087 412.189 39.885 412.197 43.3613 412.206C45.8443 412.215 48.3274 412.225 50.8104 412.236C56.1677 412.257 61.525 412.276 66.8823 412.291C74.6281 412.314 82.3739 412.342 90.1197 412.372C102.686 412.419 115.252 412.463 127.818 412.503C140.027 412.542 152.236 412.584 164.445 412.628C165.198 412.631 165.95 412.634 166.725 412.636C170.498 412.65 174.272 412.664 178.045 412.677C209.364 412.791 240.683 412.898 272.001 413C271.727 412.262 271.453 411.523 271.171 410.762C270.811 409.784 270.451 408.806 270.081 407.798C269.546 406.35 269.546 406.35 269 404.872C267.614 400.886 266.634 396.872 265.751 392.75C265.579 392 265.406 391.25 265.228 390.477C264.22 385.885 263.975 381.724 264.001 377C262.186 377.01 262.186 377.01 260.335 377.021C248.918 377.081 237.5 377.126 226.083 377.156C220.214 377.171 214.344 377.193 208.475 377.227C202.808 377.259 197.141 377.277 191.474 377.285C189.315 377.291 187.156 377.301 184.997 377.318C181.966 377.339 178.936 377.342 175.906 377.341C174.574 377.357 174.574 377.357 173.216 377.374C165.468 377.335 158.669 375.668 153.001 370C149.054 363.515 148.821 357.004 148.814 349.625C148.802 348.909 148.789 348.192 148.777 347.454C148.758 340.487 149.416 333.933 154.376 328.625C154.962 327.978 155.547 327.331 156.15 326.664C159.451 323.698 162.21 322.752 166.621 322.722C168.005 322.705 168.005 322.705 169.416 322.688C170.421 322.686 171.426 322.684 172.461 322.682C173.525 322.672 174.589 322.661 175.685 322.651C179.202 322.62 182.719 322.603 186.236 322.586C188.674 322.568 191.112 322.548 193.55 322.528C199.968 322.476 206.386 322.437 212.804 322.4C219.353 322.36 225.902 322.308 232.451 322.258C245.301 322.161 258.151 322.077 271.001 322C271.532 320.849 272.062 319.697 272.609 318.51C273.321 316.976 274.034 315.441 274.748 313.907C275.095 313.15 275.443 312.394 275.801 311.615C279.768 303.105 284.868 295.72 290.636 288.319C291.266 287.51 291.897 286.701 292.546 285.867C293.026 285.251 293.507 284.635 294.001 284C293.355 284.003 292.709 284.006 292.043 284.009C276.293 284.075 260.542 284.125 244.792 284.156C237.175 284.171 229.558 284.192 221.941 284.227C215.299 284.257 208.657 284.276 202.015 284.283C198.501 284.287 194.987 284.296 191.473 284.318C187.542 284.342 183.612 284.342 179.681 284.341C177.949 284.357 177.949 284.357 176.181 284.374C168.351 284.344 161.824 283.41 155.126 279.188C148.944 272.824 148.821 264.989 148.814 256.625C148.802 255.909 148.789 255.192 148.777 254.454C148.756 246.844 149.963 239.992 155.001 234C160.081 230.571 163.339 229.5 169.592 229.492C170.69 229.483 170.69 229.483 171.81 229.474C174.246 229.458 176.681 229.47 179.117 229.483C180.87 229.477 182.623 229.47 184.376 229.462C189.126 229.443 193.876 229.45 198.626 229.463C203.602 229.473 208.578 229.464 213.555 229.458C221.91 229.45 230.266 229.46 238.622 229.479C248.276 229.501 257.93 229.494 267.583 229.472C275.879 229.453 284.175 229.451 292.471 229.461C297.422 229.468 302.374 229.468 307.325 229.455C311.981 229.444 316.636 229.452 321.292 229.475C322.998 229.48 324.705 229.479 326.411 229.47C328.745 229.459 331.077 229.473 333.411 229.492C334.716 229.494 336.02 229.495 337.364 229.497C342.389 230.192 346.074 232.108 349.744 235.711C352.292 239.455 353.662 242.361 354.001 247C354.526 246.807 355.051 246.614 355.591 246.414C383.989 236.87 417.339 242.042 443.896 254.779C472.737 269.263 495.718 295.278 506.105 325.831C513.793 349.598 515.584 377.924 508.001 402C507.631 403.188 507.631 403.188 507.254 404.399C502.11 420.413 494.499 433.854 484.001 447C483.42 447.736 482.839 448.473 482.24 449.231C479.735 452.291 477.691 454.541 474.001 456C470.321 455.871 467.93 455.779 465.064 453.375C463.557 450.008 463.629 447.67 464.001 444C465.61 441.676 467.068 439.878 469.001 437.875C489.876 414.726 496.179 386.74 495.201 356.367C494.763 348.987 493.241 342.029 491.001 335C490.639 333.861 490.277 332.721 489.904 331.547C485.365 318.809 478.94 307.15 470.001 297C468.988 295.773 468.988 295.773 467.955 294.52C450.678 274.185 424.961 262.292 398.689 259.25C397.128 259.143 395.565 259.06 394.001 259C393.108 258.96 392.215 258.92 391.294 258.879C361.828 258.209 334.23 269.127 312.727 289.23C293.012 308.351 281.468 334.591 280.001 362C279.96 362.751 279.919 363.501 279.876 364.274C279.158 391.303 289.503 417.646 307.001 438C307.53 438.673 308.058 439.346 308.603 440.039C323.743 458.76 350.383 471.329 374.001 474C396.221 475.559 417.295 473.461 437.166 462.844C440.382 461.366 443.547 461.441 447.001 462C449.501 463.563 449.501 463.563 451.001 466C451.501 469.5 451.501 469.5 451.001 473C444.779 480.729 432.579 484.058 423.314 486.813C422.337 487.105 422.337 487.105 421.341 487.402C388.158 496.722 353.638 490.874 323.974 474.348C318.26 471.044 313.064 467.231 308.001 463C307.006 462.169 306.011 461.338 304.986 460.481C297.174 453.735 288.482 445.403 284.036 435.947C282.894 433.62 281.809 431.866 280.001 430C276.509 428.819 273.142 428.951 269.483 429.034C268.412 429.027 267.341 429.019 266.237 429.012C262.64 428.996 259.046 429.038 255.45 429.08C252.874 429.08 250.299 429.077 247.723 429.071C242.172 429.063 236.622 429.083 231.072 429.122C223.036 429.179 215.001 429.186 206.965 429.181C193.912 429.173 180.86 429.197 167.808 429.244C167.027 429.247 166.246 429.25 165.441 429.253C162.277 429.264 159.112 429.276 155.948 429.288C147.247 429.319 138.547 429.344 129.847 429.365C128.679 429.368 128.679 429.368 127.487 429.371C114.49 429.403 101.492 429.415 88.4947 429.415C80.4828 429.416 72.4715 429.436 64.4597 429.482C58.3147 429.516 52.1698 429.526 46.0246 429.526C43.5084 429.531 40.9921 429.544 38.476 429.566C35.0352 429.596 31.5957 429.594 28.1549 429.586C27.1641 429.602 26.1733 429.618 25.1525 429.635C18.2091 429.571 12.7625 427.968 7.00146 424C1.89233 418.558 -0.120936 414.299 -0.132765 406.781C-0.137223 405.471 -0.14168 404.16 -0.146273 402.809C-0.146184 401.346 -0.145995 399.883 -0.145716 398.419C-0.149014 396.871 -0.152739 395.323 -0.156857 393.776C-0.166887 389.511 -0.170596 385.246 -0.173247 380.981C-0.177147 376.386 -0.186725 371.791 -0.19546 367.196C-0.215232 356.093 -0.22529 344.989 -0.234186 333.886C-0.238568 328.66 -0.243936 323.433 -0.249176 318.207C-0.266189 300.836 -0.280683 283.466 -0.287924 266.096C-0.289834 261.587 -0.291753 257.078 -0.293709 252.569C-0.294435 250.888 -0.294435 250.888 -0.295176 249.173C-0.303478 231.014 -0.328818 212.855 -0.36129 194.696C-0.394345 176.06 -0.412371 157.424 -0.415568 138.787C-0.417734 128.321 -0.426505 117.855 -0.45203 107.388C-0.473716 98.4755 -0.481798 89.5628 -0.472063 80.65C-0.467512 76.1022 -0.469451 71.5546 -0.488825 67.0068C-0.506413 62.8423 -0.505494 58.6782 -0.489928 54.5137C-0.487545 53.0083 -0.491909 51.5028 -0.503756 49.9974C-0.569811 41.0483 -0.365447 34.0609 5.74755 26.977C6.30571 26.5309 6.86388 26.0849 7.43896 25.6254C7.99454 25.1639 8.55013 24.7024 9.12255 24.227C13.4308 21.4145 17.1619 20.7497 22.2635 20.7431ZM16.0015 41.0004C11.9945 53.0212 15.0015 66.3294 15.0015 79.0004C135.451 79.0004 255.901 79.0004 380.001 79.0004C383.854 45.7486 383.854 45.7486 376.001 37.0004C373.17 36.2552 373.17 36.2552 369.961 36.374C368.092 36.3554 368.092 36.3554 366.186 36.3363C364.802 36.3478 363.417 36.3598 362.032 36.3722C360.563 36.3672 359.094 36.3599 357.625 36.3507C353.583 36.3317 349.541 36.3441 345.499 36.3614C341.141 36.3748 336.784 36.3594 332.427 36.3476C323.889 36.3292 315.351 36.3378 306.813 36.3557C299.876 36.3697 292.938 36.3736 286.001 36.3703C285.015 36.3698 284.028 36.3693 283.012 36.3688C281.008 36.3678 279.005 36.3667 277.001 36.3656C259.274 36.3571 241.547 36.3738 223.82 36.4035C206.608 36.4323 189.395 36.4394 172.183 36.424C153.452 36.4072 134.722 36.4032 115.991 36.4207C113.995 36.4225 111.998 36.4244 110.002 36.4262C109.02 36.4271 108.037 36.428 107.025 36.429C100.094 36.4346 93.1631 36.4313 86.2319 36.4247C77.7882 36.4169 69.3446 36.4236 60.901 36.4488C56.5906 36.4614 52.2805 36.4674 47.9701 36.4563C44.0272 36.4463 40.0848 36.4546 36.142 36.4779C34.7128 36.4831 33.2834 36.4814 31.8542 36.4725C29.9169 36.4613 27.9795 36.4771 26.0423 36.4942C24.9645 36.4954 23.8867 36.4966 22.7763 36.4979C19.3054 37.1265 18.1486 38.2531 16.0015 41.0004ZM167.001 246C164.58 249.633 164.738 252.31 164.814 256.5C164.815 257.177 164.815 257.854 164.816 258.551C164.843 261.63 165.021 264.059 166.001 267C168.662 268.331 170.699 268.145 173.679 268.168C174.888 268.179 176.096 268.191 177.341 268.203C178.688 268.21 180.034 268.218 181.38 268.225C182.793 268.236 184.206 268.248 185.618 268.26C190.267 268.296 194.915 268.321 199.564 268.344C200.355 268.348 201.147 268.352 201.962 268.356C209.43 268.393 216.897 268.424 224.365 268.445C233.907 268.473 243.449 268.523 252.992 268.606C259.705 268.662 266.418 268.69 273.132 268.7C277.139 268.706 281.145 268.724 285.152 268.771C288.928 268.815 292.703 268.825 296.479 268.81C298.512 268.811 300.545 268.846 302.578 268.882C311.539 268.802 316.189 266.656 323.001 261C325.651 259.399 328.371 257.972 331.126 256.563C332.132 256.038 332.132 256.038 333.158 255.502C334.769 254.662 336.385 253.83 338.001 253C338.044 251.001 338.042 249 338.001 247C336.128 245.127 332.937 245.866 330.441 245.86C329.747 245.857 329.054 245.854 328.339 245.851C325.997 245.842 323.656 245.841 321.314 245.839C319.642 245.835 317.971 245.83 316.299 245.824C311.745 245.811 307.192 245.805 302.638 245.8C299.796 245.797 296.955 245.793 294.114 245.789C285.233 245.775 276.353 245.765 267.472 245.762C257.202 245.757 246.933 245.739 236.663 245.711C228.737 245.689 220.811 245.679 212.885 245.677C208.145 245.676 203.405 245.67 198.666 245.653C194.21 245.636 189.754 245.634 185.298 245.643C183.658 245.644 182.019 245.639 180.38 245.629C178.15 245.617 175.92 245.622 173.689 245.633C171.813 245.631 171.813 245.631 169.9 245.628C168.465 245.813 168.465 245.813 167.001 246ZM165.001 342C164.832 344.544 164.768 346.962 164.814 349.5C164.815 350.177 164.815 350.854 164.816 351.551C164.843 354.63 165.021 357.059 166.001 360C169.407 361.703 173.295 361.129 177.041 361.114C177.978 361.114 178.914 361.114 179.879 361.114C182.985 361.114 186.091 361.106 189.197 361.098C191.346 361.096 193.496 361.095 195.645 361.094C201.31 361.09 206.976 361.08 212.641 361.069C218.419 361.059 224.196 361.054 229.974 361.049C241.317 361.038 252.659 361.021 264.001 361C264.338 358.272 264.671 355.542 265.001 352.813C265.097 352.044 265.192 351.275 265.291 350.483C265.753 346.631 266.126 342.889 266.001 339C253.128 338.931 240.255 338.878 227.381 338.845C221.404 338.829 215.427 338.808 209.45 338.774C203.686 338.742 197.921 338.724 192.157 338.716C189.954 338.71 187.751 338.699 185.547 338.683C182.47 338.662 179.394 338.658 176.316 338.66C174.939 338.644 174.939 338.644 173.533 338.627C172.279 338.633 172.279 338.633 171 338.64C170.272 338.637 169.544 338.634 168.794 338.631C166.582 338.868 166.582 338.868 165.001 342Z" fill="url(#paint0_linear_7298_14639)"/>
<path d="M395.676 287.432C396.934 288.083 398.183 288.751 399.423 289.434C400.448 289.972 400.448 289.972 401.493 290.522C402.938 291.283 404.379 292.051 405.817 292.825C407.964 293.98 410.121 295.111 412.285 296.235C415.89 298.111 419.485 300.006 423.076 301.91C425.263 303.069 427.452 304.223 429.642 305.377C458.148 320.44 458.148 320.44 461.001 329C461.118 331.467 461.179 333.907 461.194 336.374C461.207 337.497 461.207 337.497 461.219 338.642C461.244 341.12 461.26 343.597 461.275 346.075C461.28 346.922 461.286 347.77 461.291 348.644C461.318 353.133 461.337 357.623 461.352 362.112C461.365 365.821 461.393 369.528 461.434 373.236C461.483 377.72 461.508 382.204 461.515 386.688C461.521 388.392 461.537 390.097 461.561 391.801C461.779 408.271 461.779 408.271 457.582 413.546C454.685 416.211 451.597 418.02 448.087 419.774C446.916 420.391 446.916 420.391 445.721 421.02C444.036 421.903 442.346 422.777 440.652 423.643C437.956 425.024 435.279 426.436 432.604 427.857C427.926 430.333 423.222 432.755 418.504 435.154C416.57 436.143 414.641 437.142 412.717 438.15C390.826 449.614 390.826 449.614 382.001 447C377.222 445.026 372.74 442.699 368.217 440.2C364.351 438.107 360.392 436.204 356.443 434.274C354.804 433.462 353.165 432.65 351.527 431.836C349.032 430.598 346.536 429.362 344.037 428.131C318.789 415.695 318.789 415.695 315.001 407C314.624 404.222 314.442 401.847 314.468 399.081C314.459 398.322 314.451 397.563 314.442 396.782C314.419 394.293 314.426 391.805 314.435 389.317C314.43 387.575 314.424 385.833 314.416 384.091C314.406 380.447 314.41 376.803 314.425 373.159C314.442 368.504 314.419 363.851 314.384 359.196C314.362 355.6 314.363 352.005 314.371 348.409C314.372 346.694 314.365 344.978 314.351 343.263C314.231 326.895 314.231 326.895 318.64 321.338C320.449 319.56 322.122 318.24 324.388 317.086C325.231 316.643 326.074 316.199 326.942 315.742C327.849 315.291 328.755 314.84 329.689 314.375C331.664 313.347 333.64 312.319 335.615 311.289C336.653 310.757 337.692 310.225 338.762 309.677C343.218 307.371 347.621 304.969 352.029 302.57C356.368 300.212 360.723 297.883 365.082 295.56C366.916 294.58 368.749 293.596 370.578 292.605C372.752 291.429 374.937 290.274 377.126 289.125C378.284 288.509 379.442 287.893 380.634 287.258C386.117 285.21 390.319 285.345 395.676 287.432ZM381.822 304.676C380.756 305.252 379.691 305.828 378.593 306.422C377.449 307.046 376.305 307.67 375.126 308.313C373.954 308.949 372.782 309.584 371.609 310.22C361.382 315.767 351.183 321.369 341.001 327C343.294 329.536 345.593 331.003 348.623 332.567C349.549 333.048 350.475 333.529 351.429 334.025C352.423 334.533 353.416 335.04 354.439 335.563C355.459 336.086 356.478 336.609 357.529 337.147C359.642 338.23 361.756 339.31 363.872 340.389C366.851 341.923 369.807 343.496 372.759 345.082C374.527 346.014 376.295 346.945 378.064 347.875C379.284 348.546 379.284 348.546 380.529 349.229C381.294 349.625 382.06 350.022 382.849 350.43C383.509 350.783 384.169 351.136 384.849 351.5C389.955 352.687 395.276 348.992 399.728 346.77C400.357 346.456 400.986 346.143 401.634 345.82C402.961 345.157 404.287 344.492 405.612 343.825C407.597 342.828 409.586 341.838 411.576 340.85C419.572 336.856 427.343 332.617 435.001 328C431.69 325.218 428.461 323.038 424.607 321.082C423.576 320.554 422.545 320.026 421.482 319.482C419.852 318.656 419.852 318.656 418.189 317.813C409.886 313.561 401.656 309.242 393.598 304.541C388.344 301.505 387.084 301.82 381.822 304.676ZM331.001 342C331.001 362.13 331.001 382.26 331.001 403C338.715 406.96 346.429 410.92 354.376 415C356.812 416.253 359.247 417.506 361.757 418.797C363.679 419.782 365.602 420.766 367.525 421.75C368.529 422.269 369.534 422.787 370.569 423.321C371.523 423.808 372.477 424.295 373.46 424.797C374.29 425.224 375.121 425.65 375.977 426.089C377.935 427.137 377.935 427.137 380.001 427C380.001 406.87 380.001 386.74 380.001 366C360.197 355.706 360.197 355.706 340.314 345.563C339.586 345.192 338.858 344.822 338.107 344.44C334.721 342.615 334.721 342.615 331.001 342ZM438.998 343.881C437.761 344.497 437.761 344.497 436.5 345.125C435.607 345.575 434.714 346.025 433.794 346.489C432.877 346.948 431.959 347.407 431.014 347.88C429.069 348.854 427.124 349.83 425.181 350.808C422.214 352.3 419.244 353.787 416.273 355.272C414.384 356.219 412.495 357.166 410.607 358.114C409.72 358.558 408.834 359.001 407.92 359.459C407.086 359.879 406.252 360.299 405.393 360.732C404.299 361.282 404.299 361.282 403.184 361.842C402.464 362.225 401.743 362.607 401.001 363C400.098 363.42 399.194 363.839 398.262 364.271C395.742 365.815 395.742 365.815 395.4 368.677C395.411 369.754 395.422 370.831 395.434 371.941C395.434 373.162 395.435 374.383 395.435 375.641C395.461 376.96 395.487 378.278 395.513 379.637C395.522 381 395.53 382.364 395.535 383.727C395.554 387.313 395.603 390.898 395.658 394.484C395.709 398.143 395.732 401.803 395.757 405.463C395.811 412.643 395.896 419.821 396.001 427C399.71 425.824 403.171 424.534 406.63 422.754C407.502 422.307 408.374 421.861 409.273 421.401C410.171 420.936 411.069 420.471 411.994 419.993C412.833 419.562 413.672 419.132 414.537 418.688C417.652 417.089 420.764 415.482 423.876 413.875C430.848 410.287 437.819 406.698 445.001 403C445.001 382.87 445.001 362.74 445.001 342C442.511 342 441.226 342.764 438.998 343.881Z" fill="url(#paint1_linear_7298_14639)"/>
<path d="M173.001 137C175.58 139.596 175.976 140.795 176.439 144.5C176.001 148 176.001 148 174.376 150.375C172.001 152 172.001 152 166.001 153C166.001 159.93 166.001 166.86 166.001 174C188.002 174.024 210.002 174.041 232.002 174.052C242.217 174.057 252.431 174.064 262.646 174.076C271.546 174.086 280.446 174.092 289.347 174.094C294.062 174.096 298.777 174.099 303.492 174.106C307.926 174.113 312.36 174.115 316.793 174.114C318.424 174.114 320.056 174.116 321.687 174.12C323.906 174.125 326.126 174.123 328.345 174.121C329.589 174.122 330.834 174.122 332.116 174.123C334.943 174.2 334.943 174.2 337.001 173C337.001 166.73 337.001 160.46 337.001 154C334.426 152.712 332.586 152.873 329.701 152.869C328.576 152.865 327.452 152.861 326.293 152.857C324.434 152.858 324.434 152.858 322.537 152.859C320.54 152.853 318.543 152.848 316.547 152.842C314.396 152.837 312.246 152.834 310.096 152.832C305.617 152.826 301.138 152.809 296.659 152.79C295.126 152.784 293.593 152.778 292.06 152.771C290.909 152.767 290.909 152.767 289.734 152.762C279.304 152.72 268.874 152.687 258.444 152.674C251.412 152.666 244.379 152.644 237.347 152.605C233.624 152.585 229.902 152.573 226.179 152.578C222.028 152.583 217.876 152.558 213.725 152.53C212.489 152.537 211.254 152.544 209.981 152.55C208.286 152.532 208.286 152.532 206.556 152.513C205.574 152.51 204.592 152.508 203.581 152.505C200.245 151.852 199.054 150.666 197.001 148C196.501 144.5 196.501 144.5 197.001 141C199.079 138.282 200.265 137.14 203.661 136.497C204.68 136.496 205.7 136.494 206.75 136.492C207.924 136.481 209.097 136.47 210.306 136.458C212.232 136.47 212.232 136.47 214.196 136.483C215.565 136.477 216.933 136.47 218.302 136.462C222.017 136.443 225.731 136.45 229.447 136.463C233.338 136.473 237.229 136.464 241.12 136.458C247.658 136.45 254.195 136.46 260.733 136.479C268.282 136.501 275.831 136.494 283.381 136.472C289.867 136.453 296.354 136.451 302.841 136.461C306.713 136.468 310.584 136.468 314.456 136.455C318.1 136.444 321.743 136.452 325.387 136.475C327.355 136.483 329.323 136.471 331.29 136.458C338.077 136.523 342.525 136.855 348.001 141C354.373 147.545 354.342 154.73 354.314 163.375C354.33 164.378 354.346 165.381 354.363 166.414C354.367 173.373 353.926 179.498 349.283 185.059C348.695 185.514 348.107 185.969 347.501 186.438C346.914 186.911 346.326 187.384 345.72 187.871C341.906 190.377 338.331 190.135 333.899 190.154C333.171 190.159 332.443 190.163 331.693 190.168C329.248 190.181 326.802 190.187 324.356 190.193C322.605 190.201 320.854 190.209 319.103 190.218C313.347 190.244 307.59 190.26 301.833 190.274C299.852 190.279 297.87 190.285 295.888 190.29C287.643 190.312 279.398 190.33 271.153 190.342C259.339 190.358 247.526 190.391 235.712 190.448C227.404 190.487 219.097 190.506 210.789 190.512C205.828 190.515 200.867 190.527 195.906 190.56C191.236 190.59 186.567 190.596 181.897 190.584C180.186 190.584 178.476 190.592 176.765 190.61C161.18 190.761 161.18 190.761 155.382 186.409C149.09 179.986 148.822 172.123 148.814 163.625C148.802 162.909 148.789 162.192 148.777 161.454C148.756 153.844 149.963 146.992 155.001 141C160.424 136.795 166.186 135.524 173.001 137Z" fill="url(#paint2_linear_7298_14639)"/>
<path d="M131.988 111.461C134.446 112.119 135.426 113.029 137.001 115C137.833 118.109 137.729 120.875 137.001 124C135.531 126.069 133.928 127.572 132.017 129.239C129.876 131.11 128.051 133.103 126.189 135.25C125.626 135.895 125.062 136.539 124.482 137.204C121.919 140.314 120.748 142.151 120.822 146.145C120.832 146.977 120.842 147.809 120.852 148.665C120.872 149.562 120.891 150.459 120.912 151.383C120.932 153.292 120.952 155.201 120.972 157.11C121.015 160.112 121.064 163.113 121.118 166.115C121.167 169.017 121.196 171.918 121.224 174.821C121.246 175.705 121.268 176.59 121.29 177.502C121.343 184.302 120.484 190.889 116.134 196.34C115.472 196.867 114.809 197.395 114.126 197.938C113.469 198.483 112.812 199.028 112.134 199.59C106.35 203.414 101.037 203.321 94.2944 203.336C93.2551 203.343 92.2157 203.35 91.1448 203.357C88.9485 203.367 86.7522 203.371 84.5559 203.371C81.2111 203.375 77.8675 203.412 74.5229 203.45C72.3843 203.455 70.2456 203.459 68.1069 203.461C67.114 203.476 66.121 203.49 65.0979 203.505C57.8677 203.458 52.4346 202.03 46.9429 197.184C46.4878 196.608 46.0328 196.032 45.564 195.438C45.0909 194.859 44.6178 194.28 44.1304 193.684C42.0251 190.544 41.8655 187.754 41.8245 184.089C41.8116 183.091 41.7988 182.093 41.7856 181.064C41.7782 179.986 41.7708 178.908 41.7632 177.797C41.7511 176.131 41.7511 176.131 41.7387 174.43C41.7249 172.076 41.7142 169.723 41.7063 167.369C41.6891 163.778 41.6452 160.189 41.6011 156.598C41.5909 154.31 41.5824 152.023 41.5757 149.735C41.5582 148.665 41.5407 147.595 41.5226 146.492C41.5431 139.431 42.3721 134.832 47.3782 129.547C53.7841 123.736 60.4438 123.701 68.6226 123.735C69.6407 123.733 70.6588 123.731 71.7078 123.729C73.8552 123.728 76.0027 123.731 78.1501 123.74C81.4243 123.75 84.698 123.74 87.9722 123.727C90.064 123.728 92.1558 123.731 94.2476 123.735C95.2207 123.731 96.1938 123.727 97.1964 123.723C102.523 123.759 106.962 124.248 112.001 126C112.835 124.99 113.67 123.979 114.529 122.938C115.664 121.624 116.801 120.312 117.939 119C118.484 118.333 119.028 117.665 119.589 116.977C123.477 112.573 126.084 111.234 131.988 111.461ZM62.0015 140C65.6891 144.303 69.1899 148.307 73.189 152.25C74.0281 153.081 74.8673 153.911 75.7319 154.766C76.8553 155.872 76.8553 155.872 78.0015 157C79.0025 157.999 80.0031 158.999 81.0015 160C91.1074 150.885 91.1074 150.885 99.0015 140C86.7915 140 74.5815 140 62.0015 140ZM104.001 158C102.992 159.077 102.021 160.189 101.064 161.313C98.0001 164.852 94.9271 168.38 91.814 171.875C90.9954 172.801 90.1768 173.727 89.3335 174.68C86.3479 177.651 84.4697 178.967 80.2515 179.063C72.4061 176.498 66.6254 168.699 61.0054 162.942C59.3468 160.884 59.3468 160.884 58.0015 161C57.9436 164.959 57.9079 168.917 57.8765 172.875C57.8597 174.003 57.8429 175.131 57.8257 176.293C57.8192 177.37 57.8128 178.446 57.8061 179.555C57.7957 180.55 57.7852 181.545 57.7744 182.57C57.7577 185.182 57.7577 185.182 60.0015 187C61.8766 187.319 61.8766 187.319 64.0364 187.291C65.2829 187.31 65.2829 187.31 66.5547 187.33C67.4536 187.332 68.3526 187.334 69.2788 187.336C70.6622 187.346 70.6622 187.346 72.0736 187.357C74.0263 187.367 75.9791 187.371 77.9319 187.371C80.9237 187.375 83.9141 187.412 86.9058 187.45C88.8009 187.455 90.6961 187.459 92.5913 187.461C93.9367 187.483 93.9367 187.483 95.3093 187.505C100.062 187.565 100.062 187.565 104.071 185.338C105.221 182.449 105.342 180.251 105.294 177.141C105.285 176.026 105.275 174.911 105.265 173.762C105.24 172.603 105.215 171.444 105.189 170.25C105.175 169.076 105.162 167.902 105.148 166.692C105.113 163.794 105.063 160.898 105.001 158C104.671 158 104.341 158 104.001 158Z" fill="url(#paint3_linear_7298_14639)"/>
<path d="M131.988 204.461C134.506 205.136 135.456 205.909 137.001 208C137.882 211.13 137.837 213.861 137.001 217C135.27 218.851 133.379 220.138 131.311 221.602C126.082 225.476 121.803 229.705 120.565 236.341C119.654 245.011 120.042 253.734 120.453 262.424C120.519 263.852 120.519 263.852 120.586 265.309C120.681 267.11 120.795 268.909 120.933 270.707C121.356 277.523 120.5 283.869 116.134 289.34C115.472 289.867 114.809 290.395 114.126 290.938C113.469 291.483 112.812 292.028 112.134 292.59C106.35 296.414 101.037 296.321 94.2944 296.336C93.2551 296.343 92.2157 296.35 91.1448 296.357C88.9485 296.367 86.7522 296.371 84.5559 296.371C81.2111 296.375 77.8675 296.412 74.5229 296.45C72.3843 296.455 70.2456 296.459 68.1069 296.461C67.114 296.476 66.121 296.49 65.0979 296.505C57.8677 296.458 52.4346 295.03 46.9429 290.184C46.4878 289.608 46.0328 289.032 45.564 288.438C45.0909 287.859 44.6178 287.28 44.1304 286.684C42.0316 283.554 41.8623 280.759 41.8086 277.105C41.7925 276.11 41.7765 275.115 41.7599 274.09C41.7153 269.535 41.6744 264.979 41.6514 260.424C41.6348 258.025 41.6076 255.627 41.5693 253.229C41.5144 249.763 41.4927 246.298 41.478 242.832C41.4554 241.768 41.4327 240.703 41.4093 239.606C41.4286 232.764 42.5634 228.292 47.0015 223C53.3632 216.802 60.2107 216.7 68.6226 216.735C69.6407 216.733 70.6588 216.731 71.7078 216.729C73.8552 216.728 76.0027 216.731 78.1501 216.74C81.4243 216.75 84.698 216.74 87.9722 216.727C90.064 216.728 92.1558 216.731 94.2476 216.735C95.2207 216.731 96.1938 216.727 97.1964 216.723C102.523 216.759 106.962 217.248 112.001 219C112.835 217.99 113.67 216.979 114.529 215.938C115.664 214.624 116.801 213.312 117.939 212C118.484 211.333 119.028 210.665 119.589 209.977C123.477 205.573 126.084 204.234 131.988 204.461ZM62.0015 233C63.9815 235.31 65.9615 237.62 68.0015 240C68.6305 240.745 69.2596 241.491 69.9077 242.258C73.3438 246.284 76.8279 249.743 81.0015 253C90.4149 243.881 90.4149 243.881 99.0015 234C99.0015 233.67 99.0015 233.34 99.0015 233C86.7915 233 74.5815 233 62.0015 233ZM99.9514 255.913C99.411 256.458 98.8707 257.002 98.314 257.563C97.4909 258.382 97.4909 258.382 96.6511 259.218C93.7961 262.086 91.1527 264.97 88.689 268.188C86.0015 271 86.0015 271 82.5015 272.188C75.207 271.797 70.4987 265.727 65.689 260.75C64.445 259.472 63.1991 258.196 61.9507 256.922C61.4076 256.361 60.8645 255.8 60.3049 255.222C59.1776 253.886 59.1776 253.886 58.0015 254C57.9436 257.959 57.9079 261.917 57.8765 265.875C57.8597 267.003 57.8429 268.131 57.8257 269.293C57.8192 270.37 57.8128 271.446 57.8061 272.555C57.7957 273.55 57.7852 274.545 57.7744 275.57C57.7577 278.182 57.7577 278.182 60.0015 280C61.8766 280.319 61.8766 280.319 64.0364 280.291C65.2829 280.31 65.2829 280.31 66.5547 280.33C67.4536 280.332 68.3526 280.334 69.2788 280.336C70.6622 280.346 70.6622 280.346 72.0736 280.357C74.0263 280.367 75.9791 280.371 77.9319 280.371C80.9237 280.375 83.9141 280.412 86.9058 280.45C88.8009 280.455 90.6961 280.459 92.5913 280.461C93.9367 280.483 93.9367 280.483 95.3093 280.505C100.067 280.567 100.067 280.567 104.071 278.324C105.2 275.506 105.343 273.397 105.294 270.36C105.285 269.29 105.275 268.22 105.265 267.118C105.24 266.006 105.215 264.895 105.189 263.75C105.175 262.624 105.162 261.497 105.148 260.336C105.113 257.557 105.063 254.779 105.001 252C102.807 252 101.422 254.447 99.9514 255.913Z" fill="url(#paint4_linear_7298_14639)"/>
<path d="M133.001 298C135.439 298.938 135.439 298.938 137.001 301C137.906 305.093 137.883 308.61 135.605 312.203C133.68 314.395 131.674 316.424 129.564 318.438C128.168 319.831 126.774 321.226 125.38 322.621C124.757 323.224 124.134 323.827 123.492 324.447C121.066 326.975 120.883 328.641 120.936 332.032C120.945 332.864 120.955 333.695 120.965 334.552C120.98 335.454 120.994 336.356 121.009 337.286C121.027 339.198 121.044 341.11 121.06 343.022C121.091 346.035 121.126 349.047 121.173 352.06C121.216 354.968 121.239 357.877 121.259 360.786C121.287 362.117 121.287 362.117 121.316 363.476C121.345 370.729 120.355 377.225 115.564 382.875C110.752 386.866 107.691 389.102 101.29 389.177C99.8573 389.197 99.8573 389.197 98.3959 389.216C96.8491 389.227 96.8491 389.227 95.271 389.239C94.2066 389.247 93.1422 389.255 92.0456 389.263C89.7902 389.277 87.5349 389.288 85.2795 389.296C81.8446 389.313 78.4107 389.357 74.9761 389.401C72.7827 389.411 70.5894 389.419 68.396 389.426C67.3749 389.444 66.3538 389.461 65.3017 389.479C57.9705 389.457 52.5137 388.099 46.9429 383.184C46.4878 382.608 46.0328 382.032 45.564 381.438C45.0909 380.859 44.6178 380.28 44.1304 379.684C42.0316 376.554 41.8623 373.759 41.8086 370.105C41.7925 369.11 41.7765 368.115 41.7599 367.09C41.7153 362.535 41.6744 357.979 41.6514 353.424C41.6348 351.025 41.6076 348.627 41.5693 346.229C41.5144 342.763 41.4927 339.298 41.478 335.832C41.4554 334.768 41.4327 333.703 41.4093 332.606C41.4286 325.764 42.5634 321.292 47.0015 316C53.2936 309.87 60.0435 309.699 68.3686 309.735C69.3622 309.733 70.3558 309.731 71.3794 309.729C73.4756 309.728 75.5718 309.731 77.668 309.74C80.8587 309.75 84.049 309.74 87.2397 309.727C89.2827 309.728 91.3257 309.731 93.3686 309.735C94.3147 309.731 95.2608 309.727 96.2356 309.723C101.828 309.762 106.632 310.417 112.001 312C112.845 311.074 113.688 310.147 114.556 309.192C115.663 307.982 116.77 306.772 117.876 305.563C118.432 304.951 118.988 304.34 119.56 303.709C120.362 302.834 120.362 302.834 121.181 301.942C121.673 301.402 122.166 300.863 122.673 300.307C125.747 297.283 128.882 297.716 133.001 298ZM61.0015 326C65.5933 331.42 65.5933 331.42 70.4311 336.528C70.9983 337.092 71.5655 337.656 72.1499 338.237C72.7197 338.798 73.2894 339.359 73.8765 339.938C74.4694 340.526 75.0624 341.115 75.6733 341.721C77.1137 343.15 78.5573 344.575 80.0015 346C84.9117 342.094 89.1898 337.788 93.439 333.188C93.9833 332.6 94.5276 332.013 95.0884 331.408C97.7706 329.037 97.7706 329.037 99.0015 326C86.4615 326 73.9215 326 61.0015 326ZM100.358 348.507C99.6246 349.246 99.6246 349.246 98.8765 350C98.3773 350.497 97.8781 350.994 97.3638 351.506C94.4655 354.418 91.8137 357.408 89.2515 360.625C86.8403 363.435 86.0769 363.976 82.3765 365.188C75.1724 364.788 70.9944 359.207 66.2515 354.313C64.9047 352.932 63.5558 351.553 62.2046 350.176C61.6132 349.567 61.0219 348.958 60.4126 348.33C59.2033 346.886 59.2033 346.886 58.0015 347C57.9436 350.959 57.9079 354.917 57.8765 358.875C57.8597 360.003 57.8429 361.131 57.8257 362.293C57.8192 363.37 57.8128 364.446 57.8061 365.555C57.7957 366.55 57.7852 367.545 57.7744 368.57C57.7577 371.182 57.7577 371.182 60.0015 373C61.8766 373.319 61.8766 373.319 64.0364 373.291C65.2829 373.31 65.2829 373.31 66.5547 373.33C67.4536 373.332 68.3526 373.334 69.2788 373.336C70.6622 373.346 70.6622 373.346 72.0736 373.357C74.0263 373.367 75.9791 373.371 77.9319 373.371C80.9237 373.375 83.9141 373.412 86.9058 373.45C88.8009 373.455 90.6961 373.459 92.5913 373.461C93.9367 373.483 93.9367 373.483 95.3093 373.505C100.067 373.567 100.067 373.567 104.071 371.324C105.2 368.506 105.343 366.397 105.294 363.36C105.285 362.29 105.275 361.22 105.265 360.118C105.24 359.006 105.215 357.895 105.189 356.75C105.175 355.624 105.162 354.497 105.148 353.336C105.113 350.557 105.063 347.779 105.001 345C102.938 345 101.735 347.134 100.358 348.507Z" fill="url(#paint5_linear_7298_14639)"/>
<path d="M222.733 49.4857C223.902 49.473 225.071 49.4603 226.276 49.4472C228.194 49.457 228.194 49.457 230.152 49.467C231.515 49.4599 232.879 49.4512 234.242 49.4408C237.943 49.4183 241.643 49.4213 245.343 49.4302C248.433 49.4353 251.522 49.428 254.611 49.4207C261.897 49.4037 269.184 49.4073 276.471 49.424C283.989 49.4409 291.508 49.4251 299.026 49.3928C305.482 49.3661 311.937 49.3588 318.392 49.3673C322.248 49.3722 326.103 49.37 329.959 49.3495C333.583 49.3312 337.208 49.3371 340.832 49.3617C342.797 49.3691 344.762 49.3518 346.727 49.3339C347.896 49.3465 349.066 49.3592 350.27 49.3722C351.287 49.3728 352.303 49.3734 353.35 49.374C356.001 50.0004 356.001 50.0004 358.364 52.3131C360.001 55.0004 360.001 55.0004 359.939 58.6254C359.044 61.8488 358.65 63.0932 356.001 65.0004C353.42 66.2913 351.562 66.1321 348.669 66.1408C347.538 66.1466 346.407 66.1523 345.241 66.1581C343.994 66.1593 342.746 66.1604 341.461 66.1615C339.498 66.169 339.498 66.169 337.495 66.1766C333.897 66.1897 330.3 66.1961 326.703 66.2006C324.456 66.2035 322.209 66.2076 319.962 66.2121C312.933 66.2258 305.903 66.2354 298.874 66.2393C290.758 66.2438 282.642 66.2613 274.525 66.2903C268.254 66.3119 261.982 66.322 255.71 66.3233C251.963 66.3244 248.217 66.3303 244.47 66.3482C240.29 66.3677 236.11 66.3633 231.93 66.3568C230.689 66.3661 229.447 66.3753 228.169 66.3848C227.029 66.3792 225.889 66.3736 224.714 66.3679C223.726 66.3694 222.738 66.3708 221.719 66.3723C218.502 65.9321 216.614 64.8985 214.001 63.0004C212.456 59.9087 212.708 57.4061 213.001 54.0004C215.924 50.1406 217.977 49.4989 222.733 49.4857Z" fill="url(#paint6_linear_7298_14639)"/>
<path d="M46.0015 50.0004C48.3765 51.0629 48.3765 51.0629 50.0015 53.0004C51.0015 56.3754 51.0015 56.3754 51.0015 60.0004C49.0941 63.5099 47.8501 64.7115 44.064 66.0004C40.429 66.0004 38.8528 65.2 36.0015 63.0004C34.4556 59.9087 34.7079 57.4061 35.0015 54.0004C37.9023 49.475 40.8705 49.359 46.0015 50.0004Z" fill="url(#paint7_linear_7298_14639)"/>
<path d="M76.0015 50.0004C78.439 51.5629 78.439 51.5629 80.0015 54.0004C80.4552 57.6306 80.4385 60.0236 78.939 63.3754C76.0731 65.779 73.6821 65.8713 70.0015 66.0004C67.3533 65.2131 66.3726 64.4776 64.689 62.3129C63.6722 58.893 64.1286 56.4293 65.0015 53.0004C68.0798 49.33 71.4347 49.4296 76.0015 50.0004Z" fill="url(#paint8_linear_7298_14639)"/>
</g>
<defs>
<linearGradient id="paint0_linear_7298_14639" x1="201.5" y1="20" x2="201.5" y2="425" gradientUnits="userSpaceOnUse">
<stop stop-color="#EA3C27"/>
<stop offset="1" stop-color="#F8B817"/>
</linearGradient>
<linearGradient id="paint1_linear_7298_14639" x1="201.5" y1="20" x2="201.5" y2="425" gradientUnits="userSpaceOnUse">
<stop stop-color="#EA3C27"/>
<stop offset="1" stop-color="#F8B817"/>
</linearGradient>
<linearGradient id="paint2_linear_7298_14639" x1="201.5" y1="20" x2="201.5" y2="425" gradientUnits="userSpaceOnUse">
<stop stop-color="#EA3C27"/>
<stop offset="1" stop-color="#F8B817"/>
</linearGradient>
<linearGradient id="paint3_linear_7298_14639" x1="201.5" y1="20" x2="201.5" y2="425" gradientUnits="userSpaceOnUse">
<stop stop-color="#EA3C27"/>
<stop offset="1" stop-color="#F8B817"/>
</linearGradient>
<linearGradient id="paint4_linear_7298_14639" x1="201.5" y1="20" x2="201.5" y2="425" gradientUnits="userSpaceOnUse">
<stop stop-color="#EA3C27"/>
<stop offset="1" stop-color="#F8B817"/>
</linearGradient>
<linearGradient id="paint5_linear_7298_14639" x1="201.5" y1="20" x2="201.5" y2="425" gradientUnits="userSpaceOnUse">
<stop stop-color="#EA3C27"/>
<stop offset="1" stop-color="#F8B817"/>
</linearGradient>
<linearGradient id="paint6_linear_7298_14639" x1="201.5" y1="20" x2="201.5" y2="425" gradientUnits="userSpaceOnUse">
<stop stop-color="#EA3C27"/>
<stop offset="1" stop-color="#F8B817"/>
</linearGradient>
<linearGradient id="paint7_linear_7298_14639" x1="201.5" y1="20" x2="201.5" y2="425" gradientUnits="userSpaceOnUse">
<stop stop-color="#EA3C27"/>
<stop offset="1" stop-color="#F8B817"/>
</linearGradient>
<linearGradient id="paint8_linear_7298_14639" x1="201.5" y1="20" x2="201.5" y2="425" gradientUnits="userSpaceOnUse">
<stop stop-color="#EA3C27"/>
<stop offset="1" stop-color="#F8B817"/>
</linearGradient>
<clipPath id="clip0_7298_14639">
<rect width="512" height="512" fill="white"/>
</clipPath>
</defs>
</svg>
