<?xml version="1.0" encoding="utf-8"?>
<!-- Generator: Adobe Illustrator 26.3.1, SVG Export Plug-In . SVG Version: 6.00 Build 0)  -->
<svg version="1.1" id="Layer_1" xmlns="http://www.w3.org/2000/svg" xmlns:xlink="http://www.w3.org/1999/xlink" x="0px" y="0px"
	 viewBox="0 0 46 46" style="enable-background:new 0 0 46 46;" xml:space="preserve">
<style type="text/css">
	.st0{clip-path:url(#SVGID_00000131360033117770483300000008980417648602306478_);}
	.st1{fill-rule:evenodd;clip-rule:evenodd;fill:#FF7B00;}
	.st2{fill:#FFFFFF;}
</style>
<g>
	<defs>
		<rect id="SVGID_1_" width="46" height="46"/>
	</defs>
	<clipPath id="SVGID_00000068640355325136898470000014295872656754764165_">
		<use xlink:href="#SVGID_1_"  style="overflow:visible;"/>
	</clipPath>
	<g style="clip-path:url(#SVGID_00000068640355325136898470000014295872656754764165_);">
		<path d="M23,0.1c-12.7,0-23,10.3-23,23c1.2,30.5,44.8,30.5,46,0C46,10.4,35.7,0.1,23,0.1z M38.8,37.3c-2.3-2.1-4.9-3.8-7.8-4.8
			c0.4-2.6,0.7-5.5,0.7-8.4h12.6C44,29.1,42,33.7,38.8,37.3z M1.8,24h12.6c0,3,0.3,5.8,0.7,8.4c-2.9,1.1-5.6,2.7-7.8,4.8
			C4,33.7,2,29.1,1.8,24z M7.3,8.9c2.1,1.9,4.4,3.4,7,4.5c0.3,0.1,0.5,0.2,0.8,0.3c-0.4,2.6-0.7,5.5-0.7,8.4H1.8
			C2,17.1,4,12.4,7.3,8.9z M23,31c-2.1,0-4.2,0.3-6.2,0.8c-0.4-2.4-0.6-5-0.6-7.9h13.7c0,2.9-0.3,5.5-0.6,7.9
			C27.2,31.3,25.1,31,23,31z M28.9,33.6c-2.9,14-8.9,13.9-11.7,0C20.9,32.5,25.1,32.5,28.9,33.6z M16.2,22.2c0-2.9,0.3-5.5,0.6-7.9
			c4,1.1,8.4,1.1,12.4,0c0.4,2.4,0.6,5,0.6,7.9H16.2z M23,13.3c-2,0-4-0.3-5.9-0.8c2.9-14,8.9-13.9,11.7,0C27,13.1,25,13.3,23,13.3z
			 M29.3,7.2c-0.8-2.2-1.7-3.9-2.7-5.1c4.2,0.7,7.9,2.7,10.9,5.4c-2,1.9-4.4,3.4-6.9,4.3C30.2,10.2,29.8,8.7,29.3,7.2z M16.7,7.2
			c-0.5,1.4-0.9,3-1.3,4.7c-2.5-1-4.9-2.4-6.9-4.3c3-2.8,6.7-4.7,10.9-5.4C18.4,3.4,17.4,5.1,16.7,7.2z M15.4,34.2
			c0.7,3.4,2,7.5,3.9,9.8c-4.2-0.7-7.9-2.7-10.9-5.4C10.5,36.6,12.9,35.2,15.4,34.2z M29.3,38.9c0.5-1.4,0.9-3,1.3-4.7
			c2.5,1,4.9,2.4,6.9,4.3c-3,2.8-6.7,4.7-10.9,5.4C27.6,42.8,28.6,41.1,29.3,38.9z M31.6,22.2c0-3-0.3-5.8-0.7-8.4
			c2.9-1.1,5.6-2.7,7.8-4.8c3.2,3.6,5.2,8.2,5.4,13.3H31.6z"/>
		<path class="st1" d="M8.6,15.9h28.8l-2.8,7.2l2.8,7.2H8.6l2.8-7.2L8.6,15.9z"/>
		<path class="st2" d="M16,27.1c-0.6,0-1.1-0.1-1.5-0.3c-0.4-0.2-0.8-0.5-1.1-0.9l0.9-0.9c0.2,0.3,0.4,0.5,0.7,0.6
			c0.3,0.1,0.6,0.2,1,0.2c0.4,0,0.6-0.1,0.8-0.2c0.2-0.1,0.3-0.3,0.3-0.6c0-0.2-0.1-0.4-0.2-0.5c-0.1-0.1-0.3-0.2-0.5-0.3
			c-0.2-0.1-0.4-0.2-0.7-0.2c-0.2-0.1-0.5-0.2-0.7-0.3c-0.2-0.1-0.5-0.2-0.7-0.4c-0.2-0.2-0.3-0.3-0.5-0.6c-0.1-0.2-0.2-0.5-0.2-0.9
			c0-0.4,0.1-0.8,0.3-1.1c0.2-0.3,0.5-0.5,0.9-0.7s0.8-0.2,1.2-0.2c0.5,0,0.9,0.1,1.3,0.3c0.4,0.2,0.7,0.4,1,0.7l-0.9,0.9
			c-0.2-0.2-0.4-0.4-0.6-0.5c-0.2-0.1-0.5-0.2-0.7-0.2c-0.3,0-0.6,0.1-0.7,0.2s-0.3,0.3-0.3,0.5c0,0.2,0.1,0.4,0.2,0.5
			c0.1,0.1,0.3,0.2,0.5,0.3c0.2,0.1,0.4,0.2,0.7,0.2c0.2,0.1,0.5,0.2,0.7,0.3c0.2,0.1,0.5,0.2,0.6,0.4c0.2,0.2,0.4,0.4,0.5,0.6
			c0.1,0.2,0.2,0.6,0.2,0.9c0,0.7-0.2,1.2-0.7,1.5C17.4,26.9,16.8,27.1,16,27.1z M19.6,27v-7H21v7H19.6z M20.6,27v-1.2h3.9V27H20.6z
			 M20.6,24v-1.2h3.5V24H20.6z M20.6,21.2V20h3.8v1.2H20.6z M28.8,27.1c-0.5,0-1-0.1-1.4-0.3c-0.4-0.2-0.8-0.4-1.2-0.8
			c-0.3-0.3-0.6-0.7-0.8-1.2c-0.2-0.4-0.3-0.9-0.3-1.4c0-0.5,0.1-1,0.3-1.4c0.2-0.4,0.4-0.8,0.8-1.1c0.3-0.3,0.7-0.6,1.2-0.8
			c0.4-0.2,0.9-0.3,1.4-0.3c0.5,0,1,0.1,1.4,0.3c0.4,0.2,0.8,0.4,1.1,0.8c0.3,0.3,0.6,0.7,0.8,1.1c0.2,0.4,0.3,0.9,0.3,1.4
			c0,0.5-0.1,1-0.3,1.4c-0.2,0.4-0.4,0.8-0.8,1.2c-0.3,0.3-0.7,0.6-1.1,0.8C29.8,27,29.3,27.1,28.8,27.1z M28.8,25.8
			c0.5,0,0.8-0.1,1.2-0.3c0.3-0.2,0.6-0.5,0.8-0.8c0.2-0.4,0.3-0.8,0.3-1.2c0-0.3-0.1-0.7-0.2-0.9c-0.1-0.3-0.3-0.5-0.5-0.7
			c-0.2-0.2-0.4-0.4-0.7-0.5c-0.3-0.1-0.6-0.2-0.9-0.2c-0.4,0-0.8,0.1-1.2,0.3c-0.3,0.2-0.6,0.5-0.8,0.8c-0.2,0.4-0.3,0.8-0.3,1.2
			c0,0.4,0.1,0.7,0.2,1c0.1,0.3,0.3,0.5,0.5,0.8c0.2,0.2,0.4,0.4,0.7,0.5C28.2,25.8,28.5,25.8,28.8,25.8z"/>
	</g>
</g>
</svg>
