<?xml version="1.0" encoding="utf-8"?>
<!-- Generator: Adobe Illustrator 26.3.1, SVG Export Plug-In . SVG Version: 6.00 Build 0)  -->
<svg version="1.1" id="Layer_1" xmlns="http://www.w3.org/2000/svg" xmlns:xlink="http://www.w3.org/1999/xlink" x="0px" y="0px"
	 viewBox="0 0 46 46" style="enable-background:new 0 0 46 46;" xml:space="preserve">
<style type="text/css">
	.st0{clip-path:url(#SVGID_00000142135817479317232940000017756914934781929877_);}
	.st1{fill:#141414;}
	.st2{fill-rule:evenodd;clip-rule:evenodd;fill:#FF7B00;}
	.st3{fill:#FFFFFF;}
</style>
<g>
	<defs>
		<rect id="SVGID_1_" width="46" height="46"/>
	</defs>
	<clipPath id="SVGID_00000073687336495624066300000015894464795725102744_">
		<use xlink:href="#SVGID_1_"  style="overflow:visible;"/>
	</clipPath>
	<g style="clip-path:url(#SVGID_00000073687336495624066300000015894464795725102744_);">
		<path class="st1" d="M45.1,39.3h-0.9V10.5c0-1.5-1.2-2.7-2.7-2.7h-6.8c-1.2,0-1.2,1.8,0,1.8h6.8c0.5,0,0.9,0.4,0.9,0.9v28.7h-14
			c-0.5,0-0.9,0.4-0.9,0.9h-9c0-0.5-0.4-0.9-0.9-0.9h-14V10.5C3.6,10,4,9.6,4.5,9.6h6.8c1.2,0,1.2-1.8,0-1.8H4.5
			C3,7.8,1.8,9,1.8,10.5v28.7H0.9c-0.5,0-0.9,0.4-0.9,0.9v2.7c0,1.5,1.2,2.7,2.7,2.7h40.6c1.5,0,2.7-1.2,2.7-2.7v-2.7
			C46,39.7,45.6,39.3,45.1,39.3z M44.2,42.9c0,0.5-0.4,0.9-0.9,0.9H2.7c-0.5,0-0.9-0.4-0.9-0.9v-1.8H17c0.3,0.5,0.9,0.9,1.6,0.9h9
			c0.7,0,1.2-0.4,1.6-0.9h15.2V42.9z"/>
		<path class="st2" d="M10.4,2.2v34.3h25.2V2.2l-2.5-1.8l-2.5,1.8L28,0.4l-2.5,1.8L23,0.4l-2.5,1.8L18,0.4l-2.5,1.8l-2.5-1.8
			L10.4,2.2z"/>
		<path class="st3" d="M17.4,12V6.5h1.1V12H17.4z M15.6,7.3v-1h4.7v1H15.6z M21,12V6.4h1.1V12H21z M21.8,12v-1h3.1v1H21.8z
			 M21.8,9.6V8.7h2.8v0.9H21.8z M21.8,7.3v-1h3.1v1H21.8z M28.3,12.1c-0.4,0-0.8-0.1-1.1-0.2c-0.4-0.1-0.7-0.4-0.9-0.6
			c-0.3-0.3-0.5-0.6-0.6-0.9c-0.1-0.4-0.2-0.7-0.2-1.1s0.1-0.8,0.2-1.1c0.1-0.4,0.3-0.7,0.6-0.9c0.3-0.3,0.6-0.5,0.9-0.6
			c0.4-0.1,0.7-0.2,1.2-0.2c0.4,0,0.8,0.1,1.2,0.2c0.3,0.1,0.6,0.3,0.9,0.6l-0.7,0.7c-0.2-0.2-0.3-0.3-0.6-0.4
			c-0.2-0.1-0.5-0.1-0.8-0.1c-0.3,0-0.5,0-0.7,0.1c-0.2,0.1-0.4,0.2-0.6,0.4c-0.2,0.2-0.3,0.4-0.4,0.6c-0.1,0.2-0.1,0.5-0.1,0.8
			c0,0.3,0,0.5,0.1,0.8c0.1,0.2,0.2,0.4,0.4,0.6c0.2,0.2,0.3,0.3,0.6,0.4c0.2,0.1,0.5,0.1,0.7,0.1c0.3,0,0.6,0,0.8-0.1
			c0.2-0.1,0.4-0.2,0.6-0.4l0.7,0.7c-0.3,0.3-0.6,0.5-0.9,0.6C29.2,12,28.8,12.1,28.3,12.1z"/>
		<path class="st1" d="M42.7,35.7H3.3c-1.2,0-1.2,1.8,0,1.8h39.5C43.9,37.4,43.9,35.7,42.7,35.7z"/>
		<path class="st3" d="M15.3,19.5h15.4c1.2,0,1.2-1.8,0-1.8H15.3C14.1,17.7,14.1,19.5,15.3,19.5z"/>
		<path class="st3" d="M15.3,23.1h15.4c1.2,0,1.2-1.8,0-1.8H15.3C14.1,21.3,14.1,23,15.3,23.1z"/>
		<path class="st3" d="M15.3,26.7H23c1.2,0,1.2-1.8,0-1.8h-7.7C14.1,24.9,14.1,26.6,15.3,26.7z"/>
		<path class="st3" d="M15.3,30.3h15.4c1.2,0,1.2-1.8,0-1.8H15.3C14.1,28.5,14.1,30.2,15.3,30.3z"/>
		<path class="st3" d="M15.3,33.9h15.4c1.2,0,1.2-1.8,0-1.8H15.3C14.1,32.1,14.1,33.8,15.3,33.9z"/>
	</g>
</g>
</svg>
