<?xml version="1.0" encoding="utf-8"?>
<!-- Generator: Adobe Illustrator 26.3.1, SVG Export Plug-In . SVG Version: 6.00 Build 0)  -->
<svg version="1.1" id="Layer_1" xmlns="http://www.w3.org/2000/svg" xmlns:xlink="http://www.w3.org/1999/xlink" x="0px" y="0px"
	 viewBox="0 0 46 46" style="enable-background:new 0 0 46 46;" xml:space="preserve">
<style type="text/css">
	.st0{clip-path:url(#SVGID_00000116923854301289379170000007825567895251683490_);}
	.st1{fill:#212121;}
	.st2{fill-rule:evenodd;clip-rule:evenodd;fill:#FF7B00;}
	.st3{fill:#FFFFFF;}
</style>
<g>
	<defs>
		<rect id="SVGID_1_" width="46" height="46"/>
	</defs>
	<clipPath id="SVGID_00000111886409150723290110000014029337932565853363_">
		<use xlink:href="#SVGID_1_"  style="overflow:visible;"/>
	</clipPath>
	<g style="clip-path:url(#SVGID_00000111886409150723290110000014029337932565853363_);">
		<path class="st1" d="M39.8,11.9h-6.6c-0.5,0-0.9,0.4-0.9,0.9v16.3c0,1.2,1.8,1.2,1.8,0V13.7h4.8v15.4c0,1.2,1.8,1.2,1.8,0V12.8
			C40.7,12.3,40.3,11.9,39.8,11.9z"/>
		<path class="st1" d="M29,19.2h-6.6c-0.5,0-0.9,0.4-0.9,0.9V34h-2.3V12.8c0-0.5-0.4-0.9-0.9-0.9h-6.6c-0.5,0-0.9,0.4-0.9,0.9V34
			H8.4V20.1c0-0.5-0.4-0.9-0.9-0.9H0.9c-0.5,0-0.9,0.4-0.9,0.9v14.7c0,0.5,0.4,0.9,0.9,0.9h21.5c0.6,0,1-0.6,0.9-1.1
			c0-0.1,0-0.2,0-0.2V21h4.8v6.7c0,1.2,1.8,1.2,1.8,0v-7.6C29.9,19.6,29.5,19.2,29,19.2z M6.6,34H1.8V21h4.8V34z M12.5,13.7h4.8V34
			h-4.8V13.7z"/>
		<path class="st1" d="M4.2,12.1c0.2,0,0.3,0,0.5-0.1L15,5.2l10.3,6.7c0.3,0.2,0.7,0.2,1,0L35.1,6l-0.4,1.8
			c-0.2,1.2,1.5,1.5,1.8,0.4l0.8-3.9c0-0.2,0-0.5-0.1-0.7c-0.1-0.2-0.3-0.3-0.6-0.4l-3.9-0.8c-0.5-0.1-1,0.2-1.1,0.7
			c-0.1,0.5,0.2,1,0.7,1.1l1.8,0.4l-8.4,5.6L15.5,3.3c-0.3-0.2-0.7-0.2-1,0L3.7,10.4c-0.4,0.3-0.5,0.8-0.3,1.2
			C3.6,11.9,3.9,12.1,4.2,12.1z"/>
		<path class="st2" d="M23.3,27.7h20.8c1,0,1.8,0.8,1.8,1.8v12.2c0,1-0.8,1.8-1.8,1.8H23.3c-1,0-1.8-0.8-1.8-1.8V29.6
			C21.5,28.6,22.3,27.7,23.3,27.7z"/>
		<path class="st3" d="M28.1,39v-0.9h1.5c0.3,0,0.5-0.1,0.6-0.2c0.1-0.2,0.2-0.3,0.2-0.6c0-0.1,0-0.3-0.1-0.4
			c-0.1-0.1-0.2-0.2-0.3-0.3c-0.1-0.1-0.3-0.1-0.4-0.1h-1.5v-0.9h1.3c0.2,0,0.4-0.1,0.5-0.2c0.1-0.1,0.2-0.3,0.2-0.5
			c0-0.2-0.1-0.4-0.2-0.5c-0.1-0.1-0.3-0.2-0.5-0.2h-1.3v-0.9h1.5c0.4,0,0.7,0.1,0.9,0.2c0.3,0.1,0.4,0.3,0.6,0.5
			c0.1,0.2,0.2,0.5,0.2,0.7c0,0.3-0.1,0.6-0.3,0.8c-0.2,0.2-0.5,0.4-0.8,0.5l0-0.4c0.4,0.1,0.7,0.3,1,0.6c0.2,0.3,0.3,0.6,0.3,1
			c0,0.3-0.1,0.6-0.2,0.8c-0.1,0.2-0.4,0.4-0.6,0.6c-0.3,0.1-0.6,0.2-1,0.2H28.1z M27.3,39v-5.6h1.1V39H27.3z M33.9,39
			c-0.5,0-0.8-0.1-1.2-0.2c-0.3-0.2-0.6-0.4-0.9-0.7l0.7-0.7c0.2,0.2,0.4,0.4,0.6,0.5c0.2,0.1,0.5,0.2,0.8,0.2
			c0.3,0,0.5-0.1,0.7-0.2c0.2-0.1,0.3-0.3,0.3-0.5c0-0.2,0-0.3-0.1-0.4s-0.2-0.2-0.4-0.3c-0.2-0.1-0.3-0.1-0.5-0.2
			c-0.2-0.1-0.4-0.1-0.6-0.2c-0.2-0.1-0.4-0.2-0.5-0.3c-0.2-0.1-0.3-0.3-0.4-0.5c-0.1-0.2-0.1-0.4-0.1-0.7c0-0.3,0.1-0.6,0.2-0.9
			c0.2-0.2,0.4-0.4,0.7-0.6c0.3-0.1,0.6-0.2,1-0.2c0.4,0,0.7,0.1,1,0.2c0.3,0.1,0.6,0.3,0.8,0.6l-0.7,0.7c-0.2-0.2-0.3-0.3-0.5-0.4
			c-0.2-0.1-0.4-0.1-0.6-0.1c-0.3,0-0.4,0-0.6,0.1c-0.1,0.1-0.2,0.2-0.2,0.4c0,0.2,0,0.3,0.1,0.4s0.2,0.2,0.4,0.2
			c0.2,0.1,0.3,0.1,0.5,0.2c0.2,0.1,0.4,0.1,0.6,0.2c0.2,0.1,0.4,0.2,0.5,0.3c0.2,0.1,0.3,0.3,0.4,0.5c0.1,0.2,0.1,0.4,0.1,0.7
			c0,0.5-0.2,0.9-0.6,1.2C35,38.9,34.5,39,33.9,39z M38.3,39c-0.5,0-0.8-0.1-1.2-0.2c-0.3-0.2-0.6-0.4-0.9-0.7l0.7-0.7
			c0.2,0.2,0.4,0.4,0.6,0.5c0.2,0.1,0.5,0.2,0.8,0.2c0.3,0,0.5-0.1,0.7-0.2c0.2-0.1,0.3-0.3,0.3-0.5c0-0.2,0-0.3-0.1-0.4
			c-0.1-0.1-0.2-0.2-0.4-0.3c-0.2-0.1-0.3-0.1-0.5-0.2c-0.2-0.1-0.4-0.1-0.6-0.2c-0.2-0.1-0.4-0.2-0.5-0.3c-0.2-0.1-0.3-0.3-0.4-0.5
			c-0.1-0.2-0.1-0.4-0.1-0.7c0-0.3,0.1-0.6,0.2-0.9c0.2-0.2,0.4-0.4,0.7-0.6c0.3-0.1,0.6-0.2,1-0.2c0.4,0,0.7,0.1,1,0.2
			c0.3,0.1,0.6,0.3,0.8,0.6l-0.7,0.7c-0.2-0.2-0.3-0.3-0.5-0.4c-0.2-0.1-0.4-0.1-0.6-0.1c-0.3,0-0.4,0-0.6,0.1
			c-0.1,0.1-0.2,0.2-0.2,0.4c0,0.2,0,0.3,0.1,0.4s0.2,0.2,0.4,0.2c0.2,0.1,0.3,0.1,0.5,0.2c0.2,0.1,0.4,0.1,0.6,0.2
			c0.2,0.1,0.4,0.2,0.5,0.3c0.2,0.1,0.3,0.3,0.4,0.5c0.1,0.2,0.1,0.4,0.1,0.7c0,0.5-0.2,0.9-0.6,1.2C39.4,38.9,38.9,39,38.3,39z"/>
	</g>
</g>
</svg>
